<svg xmlns="http://www.w3.org/2000/svg" xmlns:xlink="http://www.w3.org/1999/xlink" width="168.762" height="66" viewBox="0 0 168.762 66">
  <defs>
    <clipPath id="clip-path">
      <path id="Path_384" data-name="Path 384" d="M31.752-40A31.752,31.752,0,0,1,63.5-8.248,31.752,31.752,0,0,1,31.752,23.5,31.752,31.752,0,0,1,0-8.248,31.752,31.752,0,0,1,31.752-40ZM21.865-26.952h-8.8v6.675a14.652,14.652,0,0,0-2.875,2.244A13.421,13.421,0,0,0,6.109-8.248a13.339,13.339,0,0,0,4.078,9.785,13.669,13.669,0,0,0,2.875,2.23V10.31h8.8V5.616H30.08V-8.614H21.718v5.868H19.987A5.292,5.292,0,0,1,16.07-4.36a5.288,5.288,0,0,1-1.643-3.9,5.219,5.219,0,0,1,1.643-3.9,5.452,5.452,0,0,1,3.917-1.6A5.447,5.447,0,0,1,24.8-10.977l6.954-4,6.954,4a5.511,5.511,0,0,1,4.812-2.787,5.453,5.453,0,0,1,3.917,1.6,5.252,5.252,0,0,1,1.643,3.917A5.258,5.258,0,0,1,47.435-4.36a5.293,5.293,0,0,1-3.917,1.613H41.684V-8.614H33.468V5.615H40.95v4.842h8.8V4.163a14.131,14.131,0,0,0,3.58-2.626A13.383,13.383,0,0,0,57.4-8.248a13.343,13.343,0,0,0-4.078-9.785,14.134,14.134,0,0,0-3.58-2.625v-6.294h-8.8v5.076a14.078,14.078,0,0,0-4.371,1.643,13.712,13.712,0,0,0-4.827,4.651,13.493,13.493,0,0,0-4.8-4.651,13.622,13.622,0,0,0-5.076-1.76Z" transform="translate(0 40)" fill="#153e80" clip-rule="evenodd"/>
    </clipPath>
    <clipPath id="clip-path-2">
      <path id="Path_383" data-name="Path 383" d="M-224,1362.969H2062.152V-50H-224Z" transform="translate(224 50)" fill="#153e80"/>
    </clipPath>
  </defs>
  <g id="Group_174688" data-name="Group 174688" transform="translate(508 1006)">
    <g id="Group_1427" data-name="Group 1427" transform="translate(-508 -1006)">
      <g id="Group_1422" data-name="Group 1422" transform="translate(0 2.496)">
        <g id="Group_1423" data-name="Group 1423" clip-path="url(#clip-path)">
          <g id="Group_1422-2" data-name="Group 1422" transform="translate(-355.624 -15.876)" clip-path="url(#clip-path-2)">
            <path id="Path_382" data-name="Path 382" d="M-5-45H74.38V34.38H-5Z" transform="translate(352.686 52.938)" fill="#153e80"/>
          </g>
        </g>
        <g id="Group_1424" data-name="Group 1424" transform="translate(70.977 3.214)">
          <path id="Path_80230" data-name="Path 80230" d="M17.883-14.426l-2.311,2.285a6.831,6.831,0,0,0-5.114-2.32,5.844,5.844,0,0,0-4.264,1.688,5.533,5.533,0,0,0-1.718,4.1A5.677,5.677,0,0,0,6.26-4.441a6.065,6.065,0,0,0,4.4,1.734,5.4,5.4,0,0,0,2.868-.715A5.032,5.032,0,0,0,15.41-5.66H10.418V-8.742H19.09l.023.727a8.439,8.439,0,0,1-1.172,4.289A8.193,8.193,0,0,1,14.906-.633,8.649,8.649,0,0,1,10.535.434,9.707,9.707,0,0,1,5.748-.732,8.53,8.53,0,0,1,2.42-4.055,9.265,9.265,0,0,1,1.2-8.707,8.646,8.646,0,0,1,3.457-14.66a8.916,8.916,0,0,1,6.984-3.012,10.64,10.64,0,0,1,4.207.832A9.648,9.648,0,0,1,17.883-14.426Zm3.534-3.246h3.2V0h-3.2Zm12.089,4.594a6.758,6.758,0,0,1,3.393.9,6.519,6.519,0,0,1,2.479,2.449,6.581,6.581,0,0,1,.891,3.34,6.7,6.7,0,0,1-.9,3.375A6.469,6.469,0,0,1,36.928-.557a6.747,6.747,0,0,1-3.41.885,6.36,6.36,0,0,1-4.682-1.951A6.473,6.473,0,0,1,26.9-6.363a6.451,6.451,0,0,1,2.191-4.98A6.4,6.4,0,0,1,33.506-13.078Zm.053,3.012a3.293,3.293,0,0,0-2.483,1.037,3.683,3.683,0,0,0-.992,2.654,3.751,3.751,0,0,0,.98,2.7,3.278,3.278,0,0,0,2.483,1.031,3.316,3.316,0,0,0,2.5-1.043,3.723,3.723,0,0,0,1-2.684,3.7,3.7,0,0,0-.98-2.666A3.315,3.315,0,0,0,33.559-10.066Zm12.493-7.605v6.328a6.016,6.016,0,0,1,1.875-1.3,5.4,5.4,0,0,1,2.156-.434,5.566,5.566,0,0,1,4.242,1.887,6.845,6.845,0,0,1,1.746,4.84,6.68,6.68,0,0,1-1.8,4.764A5.684,5.684,0,0,1,49.99.328a5.313,5.313,0,0,1-2.051-.393,6.252,6.252,0,0,1-1.887-1.283V0H42.876V-17.672Zm3.363,7.547a3.34,3.34,0,0,0-2.508,1.031,3.717,3.717,0,0,0-1,2.7,3.826,3.826,0,0,0,1,2.748A3.312,3.312,0,0,0,49.415-2.6a3.252,3.252,0,0,0,2.467-1.066,3.812,3.812,0,0,0,1-2.719A3.772,3.772,0,0,0,51.9-9.076,3.262,3.262,0,0,0,49.415-10.125Zm18.71-2.625h3.2V0h-3.2V-1.348A6.272,6.272,0,0,1,66.247-.064,5.258,5.258,0,0,1,64.2.328a5.674,5.674,0,0,1-4.272-1.916,6.684,6.684,0,0,1-1.8-4.764,6.849,6.849,0,0,1,1.744-4.84,5.557,5.557,0,0,1,4.237-1.887,5.385,5.385,0,0,1,2.154.434,5.877,5.877,0,0,1,1.861,1.3Zm-3.363,2.625A3.232,3.232,0,0,0,62.3-9.076a3.78,3.78,0,0,0-.981,2.689,3.819,3.819,0,0,0,1,2.719A3.236,3.236,0,0,0,64.774-2.6a3.3,3.3,0,0,0,2.5-1.049A3.834,3.834,0,0,0,68.266-6.4a3.724,3.724,0,0,0-.993-2.7A3.337,3.337,0,0,0,64.762-10.125Zm9.44-7.547h3.2V0H74.2Z" transform="translate(0 26)" fill="#153e80"/>
        </g>
        <g id="Group_1425" data-name="Group 1425" transform="translate(70.977 31.29)">
          <path id="Path_80231" data-name="Path 80231" d="M17.883-14.426l-2.311,2.285a6.831,6.831,0,0,0-5.114-2.32,5.844,5.844,0,0,0-4.264,1.688,5.533,5.533,0,0,0-1.718,4.1A5.677,5.677,0,0,0,6.26-4.441a6.065,6.065,0,0,0,4.4,1.734,5.4,5.4,0,0,0,2.868-.715A5.032,5.032,0,0,0,15.41-5.66H10.418V-8.742H19.09l.023.727a8.439,8.439,0,0,1-1.172,4.289A8.193,8.193,0,0,1,14.906-.633,8.649,8.649,0,0,1,10.535.434,9.707,9.707,0,0,1,5.748-.732,8.53,8.53,0,0,1,2.42-4.055,9.265,9.265,0,0,1,1.2-8.707,8.646,8.646,0,0,1,3.457-14.66a8.916,8.916,0,0,1,6.984-3.012,10.64,10.64,0,0,1,4.207.832A9.648,9.648,0,0,1,17.883-14.426Zm13.3,1.676h3.2V0h-3.2V-1.348A6.272,6.272,0,0,1,29.3-.064a5.258,5.258,0,0,1-2.043.393A5.674,5.674,0,0,1,22.99-1.588a6.684,6.684,0,0,1-1.8-4.764,6.849,6.849,0,0,1,1.744-4.84,5.557,5.557,0,0,1,4.237-1.887,5.385,5.385,0,0,1,2.154.434,5.877,5.877,0,0,1,1.861,1.3ZM27.82-10.125a3.232,3.232,0,0,0-2.464,1.049,3.78,3.78,0,0,0-.981,2.689,3.819,3.819,0,0,0,1,2.719A3.236,3.236,0,0,0,27.832-2.6a3.3,3.3,0,0,0,2.5-1.049A3.834,3.834,0,0,0,31.324-6.4a3.724,3.724,0,0,0-.993-2.7A3.337,3.337,0,0,0,27.82-10.125Zm9.047-2.625h2.742v1.605a3.426,3.426,0,0,1,1.184-1.441,2.856,2.856,0,0,1,1.617-.492,2.992,2.992,0,0,1,1.3.328l-1,2.754a2.2,2.2,0,0,0-.926-.281,1.465,1.465,0,0,0-1.248.914,8.363,8.363,0,0,0-.51,3.586l.012.621V0H36.867Zm8.426,0h3.2v1.307a7.675,7.675,0,0,1,1.972-1.276,4.766,4.766,0,0,1,1.808-.359,4.377,4.377,0,0,1,3.218,1.324A4.547,4.547,0,0,1,56.6-8.426V0H53.438V-5.583a14.125,14.125,0,0,0-.2-3.032,2.077,2.077,0,0,0-.713-1.141,2,2,0,0,0-1.257-.392A2.355,2.355,0,0,0,49.6-9.5a3.468,3.468,0,0,0-.965,1.8,14.494,14.494,0,0,0-.14,2.587V0h-3.2Zm27.176,7.3H62.191a3.421,3.421,0,0,0,1.189,2.162,3.732,3.732,0,0,0,2.467.8A4.265,4.265,0,0,0,68.93-3.738l2.7,1.266A6.362,6.362,0,0,1,69.211-.357a7.55,7.55,0,0,1-3.34.686,6.6,6.6,0,0,1-4.887-1.893A6.441,6.441,0,0,1,59.1-6.3a6.658,6.658,0,0,1,1.881-4.846A6.317,6.317,0,0,1,65.7-13.078a6.551,6.551,0,0,1,4.9,1.928A6.967,6.967,0,0,1,72.48-6.059Zm-3.2-2.52A3.21,3.21,0,0,0,68.019-9.7a3.625,3.625,0,0,0-2.166-.668,3.829,3.829,0,0,0-2.348.75,4.179,4.179,0,0,0-1.174,1.652Zm5.039-4.781h2.742v1.605a3.426,3.426,0,0,1,1.184-1.441,2.856,2.856,0,0,1,1.617-.492,2.992,2.992,0,0,1,1.3.328l-1,2.754a2.2,2.2,0,0,0-.926-.281,1.465,1.465,0,0,0-1.248.914,8.363,8.363,0,0,0-.51,3.586l.012.621V0H74.309Z" transform="translate(0 22)" fill="#153e80"/>
        </g>
      </g>
      <g id="Group_1426" data-name="Group 1426" transform="translate(151.977 0)">
        <path id="Path_385" data-name="Path 385" d="M910.3,93.669V84.6h3.849a6.752,6.752,0,0,1,2.12.249,2.007,2.007,0,0,1,1.051.873,2.6,2.6,0,0,1,.392,1.425,2.407,2.407,0,0,1-.606,1.693,2.852,2.852,0,0,1-1.8.837,3.987,3.987,0,0,1,.98.766,10.6,10.6,0,0,1,1.033,1.479l1.1,1.764h-2.192l-1.319-1.978a10.342,10.342,0,0,0-.962-1.336A1.522,1.522,0,0,0,913.4,90a2.9,2.9,0,0,0-.927-.107H912.1v3.777Zm1.835-5.221h1.354a7.214,7.214,0,0,0,1.639-.107.944.944,0,0,0,.517-.392,1.2,1.2,0,0,0,.178-.677,1.067,1.067,0,0,0-.249-.731,1.092,1.092,0,0,0-.695-.356c-.143-.018-.588-.036-1.336-.036h-1.425v2.3Z" transform="translate(-905.65 -80.93)" fill="#153e80"/>
        <path id="Path_386" data-name="Path 386" d="M892.592,80.784a8.392,8.392,0,1,1,8.392-8.392A8.4,8.4,0,0,1,892.592,80.784Zm0-15.733a7.341,7.341,0,1,0,7.341,7.341A7.353,7.353,0,0,0,892.592,65.051Z" transform="translate(-884.2 -64)" fill="#153e80"/>
      </g>
    </g>
  </g>
</svg>
