<?xml version="1.0" encoding="UTF-8"?>
<svg id="Layer_2" data-name="Layer 2" xmlns="http://www.w3.org/2000/svg" viewBox="0 0 431.23 431.23">
  <g id="Layer_1-2" data-name="Layer 1">
    <g id="Group_173772" data-name="Group 173772">
      <circle id="Ellipse_3358" data-name="Ellipse 3358" cx="215.62" cy="215.62" r="215.62" fill="#000" stroke-width="0"/>
      <g id="Group_173770" data-name="Group 173770">
        <path d="M152.05,327.96c-5.95,0-10.78-4.83-10.78-10.78v-91.64c0-5.95,4.83-10.78,10.78-10.78h48.07c.16,0,.31,0,.47.01.3.01,32.14,1.07,48.87-15.4,7.12-7.01,10.44-16.23,10.16-28.18-1.11-46.27-56.98-46.38-59.39-46.37-.03,0-.08,0-.11,0h-37.28v60.34c0,5.95-4.83,10.78-10.78,10.78s-10.78-4.83-10.78-10.78v-71.12c0-5.95,4.83-10.78,10.78-10.78h48.02c1.65-.01,19.99.04,38.69,7.57,27.07,10.9,41.73,31.59,42.41,59.84.43,18.02-5.18,32.88-16.67,44.14-22.74,22.29-60.68,21.62-64.58,21.5h-37.08v80.86c0,5.95-4.83,10.78-10.78,10.78Z" fill="#fff" stroke-width="0"/>
        <path d="M279.19,327.95c-3.78,0-7.44-1.99-9.42-5.51l-31.82-56.81c-2.91-5.19-1.06-11.76,4.14-14.67,5.19-2.91,11.77-1.06,14.67,4.14l31.82,56.81c2.91,5.19,1.06,11.76-4.14,14.67-1.67.93-3.47,1.38-5.26,1.38Z" fill="#fff" stroke-width="0"/>
      </g>
    </g>
  </g>
</svg>