<svg xmlns="http://www.w3.org/2000/svg" width="77.072" height="87.387" viewBox="0 0 77.072 87.387">
  <path id="Exclusion_1" data-name="Exclusion 1" d="M57.1,98.9a5.01,5.01,0,0,1-2.5-.669L21.082,78.9a5.014,5.014,0,0,1-2.5-4.333L18.6,35.874a5.015,5.015,0,0,1,2.5-4.328l33.54-19.365a5,5,0,0,1,5,0L93.151,31.512a5.012,5.012,0,0,1,2.5,4.333l-.016,38.692a5.015,5.015,0,0,1-2.5,4.328L59.6,98.23A5.005,5.005,0,0,1,57.1,98.9ZM58.617,35.7a1,1,0,0,0-1,1v38a1,1,0,0,0,1,1h14a1,1,0,0,0,1-1v-38a1,1,0,0,0-1-1Zm-19,22h0a1,1,0,0,0-1,1v16a1,1,0,0,0,1,1h14a1,1,0,0,0,1-1v-10a1,1,0,0,0-1-1Z" transform="translate(-18.58 -11.512)" fill="#015c8b"/>
</svg>
